<?xml version="1.0" standalone="no"?>
<!DOCTYPE svg PUBLIC "-//W3C//DTD SVG 20010904//EN"
 "http://www.w3.org/TR/2001/REC-SVG-20010904/DTD/svg10.dtd">
<svg version="1.0" xmlns="http://www.w3.org/2000/svg"
 width="700.000000pt" height="700.000000pt" viewBox="0 0 700.000000 700.000000"
 preserveAspectRatio="xMidYMid meet">
<metadata>
Created by potrace 1.14, written by Peter Selinger 2001-2017
</metadata>
<g transform="translate(0.000000,700.000000) scale(0.100000,-0.100000)"
fill="#000000" stroke="none">
<path d="M4778 6995 c-1 -2 -41 -6 -88 -9 -210 -15 -561 -86 -850 -171 -85
-25 -164 -47 -175 -50 -40 -10 -364 -125 -515 -183 -162 -62 -187 -73 -257
-103 -24 -11 -45 -19 -48 -19 -3 0 -35 -14 -72 -31 -38 -17 -77 -34 -88 -39
-170 -70 -705 -327 -862 -414 -313 -172 -637 -381 -818 -527 -501 -405 -785
-786 -894 -1199 -29 -111 -33 -141 -37 -300 -4 -205 28 -365 112 -548 117
-254 336 -519 543 -656 212 -142 393 -201 881 -291 356 -65 523 -112 695 -196
338 -163 523 -392 778 -959 199 -444 309 -626 475 -788 197 -193 517 -360 782
-407 78 -14 100 -16 205 -19 495 -15 954 278 1320 839 95 146 122 192 209 370
92 187 106 218 171 385 101 260 248 746 278 920 3 14 10 43 15 65 6 22 13 51
16 65 3 14 25 124 50 245 25 121 52 258 60 305 9 47 18 96 20 110 3 14 7 43
10 65 4 22 9 53 12 68 3 16 7 38 9 50 1 12 12 90 24 172 11 83 23 173 26 200
3 28 8 66 10 85 4 34 11 109 20 215 25 297 26 795 1 956 -3 13 -7 51 -11 84
-7 63 -14 114 -21 149 -2 11 -7 37 -10 56 -9 56 -73 297 -90 343 -9 23 -22 56
-29 72 -7 17 -16 41 -20 55 -17 55 -130 260 -193 350 -92 131 -272 308 -398
393 -170 113 -333 186 -534 237 -67 17 -114 26 -245 45 -43 7 -461 16 -467 10z"/>
</g>
</svg>
