<svg width="64" height="65" viewBox="0 0 64 65" fill="none" xmlns="http://www.w3.org/2000/svg">
<path d="M58.6665 17.4043H42.6665" stroke="#131316" stroke-width="2" stroke-miterlimit="10" stroke-linecap="round" stroke-linejoin="round"/>
<path d="M15.9999 17.4043H5.33325" stroke="#131316" stroke-width="2" stroke-miterlimit="10" stroke-linecap="round" stroke-linejoin="round"/>
<path d="M26.6666 26.737C31.8212 26.737 35.9999 22.5583 35.9999 17.4036C35.9999 12.249 31.8212 8.07031 26.6666 8.07031C21.5119 8.07031 17.3333 12.249 17.3333 17.4036C17.3333 22.5583 21.5119 26.737 26.6666 26.737Z" stroke="#131316" stroke-width="2" stroke-miterlimit="10" stroke-linecap="round" stroke-linejoin="round"/>
<path d="M58.6667 46.7363H48" stroke="#131316" stroke-width="2" stroke-miterlimit="10" stroke-linecap="round" stroke-linejoin="round"/>
<path d="M21.3333 46.7363H5.33325" stroke="#131316" stroke-width="2" stroke-miterlimit="10" stroke-linecap="round" stroke-linejoin="round"/>
<path d="M37.3333 56.071C42.488 56.071 46.6667 51.8923 46.6667 46.7376C46.6667 41.583 42.488 37.4043 37.3333 37.4043C32.1787 37.4043 28 41.583 28 46.7376C28 51.8923 32.1787 56.071 37.3333 56.071Z" stroke="#131316" stroke-width="2" stroke-miterlimit="10" stroke-linecap="round" stroke-linejoin="round"/>
</svg>
