<svg width="24" height="25" viewBox="0 0 24 25" fill="none" xmlns="http://www.w3.org/2000/svg">
<path d="M20.9842 4.07048C21.1377 4.06741 21.4769 4.10578 21.6978 4.28533C21.8447 4.41286 21.9383 4.59085 21.9603 4.7841C21.9848 4.92683 22.0155 5.25372 21.991 5.50847C21.7147 8.42129 20.5146 15.487 19.9038 18.7482C19.646 20.1294 19.138 20.5913 18.6454 20.6358C17.5772 20.7356 16.7654 19.9299 15.7295 19.2515C14.1089 18.188 13.1927 17.5265 11.6196 16.4891C9.80102 15.2921 10.9796 14.6321 12.0156 13.5579C12.2872 13.2755 16.9987 8.98912 17.0907 8.60085C17.1015 8.55174 17.1122 8.37065 17.0048 8.2755C16.8974 8.18035 16.7378 8.21258 16.6227 8.23867C16.46 8.2755 13.871 9.9882 8.85565 13.3722C8.11901 13.8786 7.45449 14.1242 6.8575 14.1088C6.20066 14.0965 4.93608 13.739 3.99532 13.4336C2.84125 13.0576 1.92504 12.8596 2.00485 12.2227C2.04628 11.8912 2.50362 11.552 3.37531 11.2052C8.74362 8.86635 12.3225 7.324 14.115 6.57968C19.2286 4.45261 20.2921 4.08276 20.9842 4.07048Z" stroke="white" stroke-width="1.5" stroke-miterlimit="10"/>
</svg> 
