<svg width="24" height="25" viewBox="0 0 24 25" fill="none" xmlns="http://www.w3.org/2000/svg">
<path d="M9 22.0703H15C20 22.0703 22 20.0703 22 15.0703V9.07031C22 4.07031 20 2.07031 15 2.07031H9C4 2.07031 2 4.07031 2 9.07031V15.0703C2 20.0703 4 22.0703 9 22.0703Z" stroke="#5B8FF5" stroke-width="1.5" stroke-linecap="round" stroke-linejoin="round"/>
<path d="M9.1001 12.0698V10.5898C9.1001 8.67982 10.4501 7.90982 12.1001 8.85982L13.3801 9.59981L14.6601 10.3398C16.3101 11.2898 16.3101 12.8498 14.6601 13.7998L13.3801 14.5398L12.1001 15.2798C10.4501 16.2298 9.1001 15.4498 9.1001 13.5498V12.0698Z" stroke="#5B8FF5" stroke-width="1.5" stroke-miterlimit="10" stroke-linecap="round" stroke-linejoin="round"/>
</svg>
