<svg width="167" height="52" viewBox="0 0 167 52" fill="none" xmlns="http://www.w3.org/2000/svg">
<path d="M18.3858 22.4974C20.4457 22.4974 22.4303 22.573 24.3145 22.6988C24.0381 13.0696 22.3299 8.03474 21.0738 8.03474C20.2448 8.03474 18.8882 10.4766 18.1471 15.8766C18.125 16.0692 18.0284 16.2456 17.8782 16.3679C17.728 16.4902 17.536 16.5487 17.3432 16.5311C17.2381 16.5238 17.1357 16.4945 17.0425 16.4452C16.9495 16.3957 16.8677 16.3272 16.8026 16.2443C16.7374 16.1612 16.6905 16.0654 16.6646 15.9631C16.6387 15.8607 16.6346 15.754 16.6524 15.65C16.9918 12.9023 17.7634 10.2258 18.9384 7.72006L19.0389 7.53125C18.6621 7.53125 18.2727 7.53125 17.8833 7.53125C13.4124 7.53122 9.1235 9.30583 5.95501 12.4668C2.78653 15.6277 0.996492 19.9177 0.976562 24.3981C0.976562 24.5491 0.976562 24.7002 0.976562 24.8512L1.16497 24.7631C4.60662 23.3911 11.2889 22.4974 18.3858 22.4974Z" fill="#E4032E"/>
<path d="M23.8876 31.9501C23.8428 31.8989 23.7862 31.8594 23.7227 31.8353C23.6591 31.8112 23.5907 31.803 23.5233 31.8117C21.8528 31.9124 20.1194 31.9627 18.386 31.9627C12.9397 32.0978 7.50176 31.4621 2.2328 30.0746L1.99414 30.0117C3.40254 34.0795 6.30583 37.4563 10.1123 39.4535C13.9189 41.4508 18.3422 41.9184 22.4808 40.7611C23.2579 38.0223 23.771 35.2151 24.0132 32.3781C24.0308 32.3019 24.0285 32.2225 24.0065 32.1475C23.9845 32.0725 23.9435 32.0045 23.8876 31.9501Z" fill="#E4032E"/>
<path d="M18.6248 23.9199C8.26219 23.9199 2.83594 25.6569 2.83594 26.6136C2.83594 27.5702 8.26219 29.2946 18.6248 29.2946C20.2452 29.2946 21.853 29.2946 23.4231 29.1436C23.6522 29.1282 23.8675 29.0284 24.0275 28.8634C24.1875 28.6984 24.281 28.4797 24.2897 28.2499C24.2897 27.2178 24.3525 26.1604 24.3525 25.0779V24.1339C22.5187 23.9954 20.5969 23.9199 18.6248 23.9199Z" fill="#E4032E"/>
<path d="M33.7988 30.125C31.9586 30.7542 30.0673 31.2217 28.1464 31.5222C27.9443 31.5472 27.7569 31.6409 27.6152 31.7874C27.4735 31.9339 27.3861 32.1246 27.3676 32.3277C27.1933 34.6318 26.8107 36.9153 26.2246 39.15C29.7449 37.146 32.432 33.9441 33.7988 30.125Z" fill="#E4032E"/>
<path d="M27.6062 28.1735C27.6033 28.2379 27.6154 28.3023 27.6415 28.3613C27.6677 28.4202 27.7072 28.4723 27.757 28.5133C27.8048 28.5592 27.8626 28.5933 27.9258 28.613C27.989 28.6327 28.0559 28.6373 28.1212 28.6266C30.3215 28.3965 32.4855 27.8977 34.5649 27.1413C34.715 26.2342 34.7949 25.3168 34.8036 24.3973C34.8036 23.9064 34.8036 23.4281 34.7282 22.9624C34.7282 22.8239 34.7282 22.6981 34.7282 22.5722C34.7282 22.1065 34.6026 21.6408 34.5147 21.175C34.5147 20.9736 34.4267 20.7597 34.3765 20.5583C34.1699 19.6414 33.884 18.7445 33.5224 17.8772C33.5224 17.8772 33.5224 17.8143 33.5224 17.7891C31.9078 14.0156 28.9918 10.9505 25.3076 9.1543C26.8903 13.0689 27.6314 19.3625 27.6314 25.9204C27.6314 26.6882 27.6188 27.4434 27.6062 28.1735Z" fill="#E4032E"/>
<path d="M54.6869 13.7113C52.3506 13.7113 51.1322 14.7812 50.7051 16.0399H46.4345C47.0374 12.7672 49.9138 9.99805 54.8376 9.99805C59.7614 9.99805 63.0398 12.6539 63.0398 17.349V30.6914H58.8571V28.3376C58.0926 29.2513 57.1285 29.9763 56.0394 30.4565C54.9503 30.9368 53.7654 31.1592 52.5767 31.1067C48.6829 31.1067 45.6055 28.7278 45.6055 24.8132C45.6055 20.8986 48.708 18.4189 53.7323 18.4189H58.631V17.2735C58.631 14.8945 56.9353 13.7113 54.6869 13.7113ZM58.631 23.0384V21.8804H54.0463C51.7602 21.8804 50.1902 22.8622 50.1902 24.6873C50.1902 26.5124 51.6095 27.4942 53.6192 27.4942C56.2444 27.4313 58.631 25.7698 58.631 23.0384Z" fill="#B2B2B2"/>
<path d="M67.4238 27.1167L77.8367 14.4289H67.4238V10.4766H83.5142V13.9884L73.1013 26.6762H83.5142V30.6915H67.4238V27.1167Z" fill="#B2B2B2"/>
<path d="M93.0976 4.47214C93.0503 5.17921 92.7365 5.84179 92.2199 6.32579C91.7034 6.80979 91.0226 7.07905 90.3154 7.07905C89.6082 7.07905 88.9276 6.80979 88.4109 6.32579C87.8944 5.84179 87.5807 5.17921 87.5332 4.47214C87.5807 3.76508 87.8944 3.10249 88.4109 2.61849C88.9276 2.13448 89.6082 1.86523 90.3154 1.86523C91.0226 1.86523 91.7034 2.13448 92.2199 2.61849C92.7365 3.10249 93.0503 3.76508 93.0976 4.47214ZM92.545 30.6912H88.0482V10.5517H92.545V30.6912Z" fill="#B2B2B2"/>
<path d="M127.564 17.6641V30.6917H123.068V18.457C123.068 15.3732 121.297 14.0768 119.199 14.0768C118.626 14.0676 118.058 14.179 117.53 14.4037C117.003 14.6285 116.529 14.9617 116.138 15.3816C115.748 15.8017 115.449 16.2991 115.263 16.8419C115.076 17.3846 115.005 17.9606 115.054 18.5326V30.6917H110.57V18.457C110.57 15.3732 108.786 14.0768 106.701 14.0768C106.127 14.0681 105.557 14.1795 105.028 14.404C104.499 14.6283 104.022 14.9608 103.629 15.3801C103.235 15.7994 102.933 16.2962 102.742 16.8391C102.551 17.3818 102.475 17.9587 102.518 18.5326V30.6917H98.0215V10.5524H102.368V12.8432C103.011 11.941 103.864 11.2101 104.854 10.7143C105.843 10.2184 106.939 9.97273 108.045 9.99853C109.223 9.96649 110.388 10.2507 111.419 10.8217C112.451 11.3927 113.311 12.2297 113.911 13.246C114.672 12.226 115.662 11.4002 116.801 10.8359C117.941 10.2716 119.197 9.98473 120.468 9.99853C123.972 9.99853 127.564 12.2139 127.564 17.6641Z" fill="#B2B2B2"/>
<path d="M146.016 30.6915V28.2999C145.316 29.2062 144.411 29.933 143.376 30.421C142.341 30.9088 141.206 31.144 140.063 31.1068C136.194 31.1068 132.689 28.816 132.689 23.2399V10.4766H137.186V22.4091C137.186 25.5685 138.882 27.0286 141.281 27.0286C141.913 27.055 142.543 26.9453 143.129 26.7068C143.715 26.4682 144.243 26.1066 144.677 25.646C145.112 25.1855 145.444 24.6368 145.648 24.0371C145.853 23.4375 145.927 22.8008 145.866 22.17V10.4766H150.362V30.6915H146.016Z" fill="#B2B2B2"/>
<path d="M164.267 26.7137H165.523V30.6912H163.513C159.067 30.6912 156.894 28.7528 156.894 24.0955V14.3279H153.716V10.5518H156.944V5.21484H161.441V10.4763H165.523V14.2524H161.39V23.7431C161.441 26.1976 162.659 26.7137 164.267 26.7137Z" fill="#B2B2B2"/>
<path d="M51.6193 42.6496H52.8855V50.5795H51.6193V47.0677H47.7984V50.5795H46.5322V42.6496H47.7984V46.0255H51.6193V42.6496ZM55.2322 49.5939C54.6067 48.8463 54.2939 47.8531 54.2939 46.6146C54.2939 45.376 54.6067 44.3829 55.2322 43.6352C55.8652 42.8875 56.7621 42.5137 57.9227 42.5137C59.0833 42.5137 59.9764 42.8875 60.6019 43.6352C61.235 44.3829 61.5515 45.376 61.5515 46.6146C61.5515 47.8531 61.235 48.8463 60.6019 49.5939C59.9764 50.3416 59.0833 50.7155 57.9227 50.7155C56.7621 50.7155 55.8652 50.3416 55.2322 49.5939ZM56.1818 44.4055C55.7673 44.9719 55.56 45.7083 55.56 46.6146C55.56 47.5208 55.7673 48.261 56.1818 48.8349C56.5963 49.4014 57.1766 49.6846 57.9227 49.6846C58.6688 49.6846 59.2491 49.4014 59.6636 48.8349C60.0781 48.261 60.2854 47.5208 60.2854 46.6146C60.2854 45.7083 60.0781 44.9719 59.6636 44.4055C59.2491 43.8315 58.6688 43.5446 57.9227 43.5446C57.1766 43.5446 56.5963 43.8315 56.1818 44.4055ZM61.9947 43.6918V42.6496H68.1896V43.6918H65.7252V50.5795H64.4591V43.6918H61.9947ZM69.3845 50.5795V42.6496H74.8673V43.6465H70.6507V46.0708H73.9742V47.0224H70.6507V49.5826H75.0256V50.5795H69.3845ZM76.4279 50.5795V42.6496H77.694V49.5373H81.4924V50.5795H76.4279ZM82.0777 48.0873L83.2647 48.0419C83.3174 49.1597 83.9882 49.7186 85.2769 49.7186C85.7819 49.7186 86.2001 49.6242 86.5317 49.4353C86.8633 49.2465 87.0291 48.9482 87.0291 48.5404C87.0291 48.2534 86.9274 48.0193 86.7239 47.838C86.5204 47.6492 86.1775 47.4755 85.6952 47.3169L84.056 46.7845C82.9255 46.422 82.3603 45.7272 82.3603 44.7001C82.3603 43.975 82.6165 43.4313 83.129 43.0688C83.649 42.6987 84.3009 42.5137 85.0847 42.5137C85.9288 42.5137 86.6184 42.7251 87.1535 43.1481C87.6961 43.5634 87.9938 44.145 88.0466 44.8926L86.8709 44.9719C86.8407 44.5264 86.6712 44.1714 86.3622 43.9071C86.0607 43.6427 85.6311 43.5106 85.0734 43.5106C84.6137 43.5106 84.2557 43.6088 83.9995 43.8051C83.7508 43.9939 83.6264 44.262 83.6264 44.6094C83.6264 45.1456 84.0146 45.5384 84.7908 45.7876L86.43 46.3087C87.0555 46.5051 87.5228 46.7732 87.8318 47.113C88.1408 47.4529 88.2953 47.8985 88.2953 48.4498C88.2953 49.205 88.0239 49.7714 87.4813 50.149C86.9387 50.5267 86.2001 50.7155 85.2656 50.7155C84.2633 50.7155 83.4908 50.4927 82.9481 50.0471C82.4055 49.5939 82.1154 48.9407 82.0777 48.0873Z" fill="#A8A8A7"/>
</svg>
